<svg width="114" height="20" viewBox="0 0 114 20" fill="none" xmlns="http://www.w3.org/2000/svg">
<path d="M57.7716 7.35893C57.7639 7.3141 57.7562 7.27675 57.7408 7.23192C57.7254 7.16468 57.71 7.09744 57.6946 7.0302C57.3403 5.536 56.8473 4.75155 56.1848 3.84009C56.0308 3.6309 55.869 3.42919 55.6995 3.24241C53.7584 1.16547 51.3166 0.119536 48.4357 0.119536C46.5639 0.119536 44.8539 0.560324 43.3518 1.43443C41.8575 2.30107 40.6712 3.51137 39.8162 5.01304C39.3694 5.80496 39.0382 6.65665 38.8225 7.53823H36.5964C36.5964 6.76872 36.5964 6.04403 36.5887 5.52853V5.25211C36.5887 2.62232 34.0853 0.22413 31.3815 0.022413C29.5097 -0.134478 27.7766 0.575266 26.6212 1.97234C25.4349 3.40677 25.0729 5.32682 25.6506 7.09744C26.3978 9.76459 29.0861 11.7519 31.9362 11.7668C31.8745 12.1179 31.7667 12.4766 31.6049 12.8501C31.0272 14.1501 30.0952 15.0989 28.6393 15.4575C27.1989 15.8086 25.6429 15.5845 24.5337 14.6805C23.9175 14.1799 23.332 13.6121 23.0162 12.88C22.8313 12.4541 22.7928 12.0134 22.7851 11.5651V11.0122V10.9898V4.88603V2.67461V3.69814C22.7851 3.69814 22.7851 3.54125 22.7851 3.53378V1.93499C22.7851 1.78557 22.6619 1.65856 22.5001 1.65856H18.51C18.356 1.65856 18.225 1.7781 18.225 1.93499V11.6024C18.225 12.5886 17.8938 13.5673 17.2159 14.2995C16.3917 15.1885 15.2517 15.6517 14.0347 15.5845C13.9114 15.5845 13.7959 15.5695 13.6726 15.5546C12.1474 15.3379 10.8611 14.2397 10.3989 12.753L7.94937 4.26594C7.16368 1.71833 4.79119 0 2.04897 0H0.392847C0.177166 0 0 0.171833 0 0.381021V4.01939C0 4.22858 0.177166 4.40041 0.392847 4.40041H2.04897C2.75763 4.40041 3.40467 4.86362 3.60495 5.52106L6.07757 14.0978C7.08665 17.3701 9.98294 19.6636 13.4723 19.9625L13.6418 19.9774C13.8036 19.9924 13.973 19.9924 14.1502 19.9998C16.669 20.0148 19.0261 18.9539 20.6899 17.0488C22.4231 18.8568 24.9034 19.9251 27.3992 19.9251C27.7535 19.9251 28.1232 19.9027 28.493 19.8579C32.3598 19.4545 35.7029 16.4661 36.4269 12.753C36.4886 12.4243 36.5348 12.0806 36.5656 11.7519H38.6993C38.8996 12.8576 39.2693 13.896 39.8162 14.8523C40.6712 16.3465 41.8575 17.5419 43.3672 18.4235C44.877 19.305 46.5793 19.7533 48.4357 19.7533C49.9532 19.7533 51.3551 19.4619 52.6184 18.8717C53.874 18.2965 54.9524 17.5045 55.7997 16.5333C56.5854 15.6368 57.1554 14.6506 57.4943 13.6121C57.5405 13.4851 57.5174 13.3432 57.4327 13.2311C57.348 13.1191 57.2093 13.0518 57.0707 13.0518H52.68C52.5028 13.0518 52.3565 13.1564 52.2872 13.3133C52.0946 13.7466 51.8404 14.1202 51.5092 14.434C51.1548 14.7702 50.7158 15.0316 50.192 15.2035C49.6682 15.3828 49.0443 15.4724 48.351 15.4724C47.4267 15.4724 46.5716 15.2483 45.8167 14.8C45.0619 14.3592 44.4533 13.7093 44.0143 12.865C43.7678 12.4018 43.5598 11.9611 43.4828 11.7444H57.4173C57.6407 11.7444 57.8332 11.58 57.8641 11.3708C58.1028 9.74964 57.995 8.38992 57.787 7.35146L57.7716 7.35893ZM32.0594 6.46241C32.0594 6.74631 32.0594 6.94055 32.0594 7.0302C32.0594 7.08997 32.0594 7.23939 32.0594 7.52329C31.0118 7.50088 30.0335 6.80607 29.7639 5.87967C29.6176 5.45382 29.6561 5.02051 29.8641 4.69925C30.0335 4.43777 30.3031 4.27341 30.6575 4.20617C30.8038 4.17628 30.9425 4.18376 31.1119 4.20617C31.9439 4.45271 32.0517 4.93085 32.0671 5.44635C32.0748 5.77508 32.0671 6.1038 32.0671 6.43252V6.46241H32.0594ZM43.7062 7.53076C43.8063 7.23192 43.9218 6.97791 44.0374 6.75378C44.4996 5.93197 45.1235 5.3044 45.8784 4.90097C46.6487 4.49007 47.496 4.28835 48.4203 4.28835C49.2137 4.28835 49.9686 4.45271 50.6773 4.76649C51.3705 5.08027 51.9482 5.51359 52.3719 6.0515C52.7416 6.5147 52.965 7.00032 53.0575 7.52329H43.7062V7.53076Z" fill="#D4ED6D"/>
<path d="M82.8928 0C80.1417 0 77.6778 1.29536 76.0076 3.34764C74.3297 1.29536 71.8658 0 69.1223 0C64.0888 0 60 4.33867 60 9.66836V19.5084C60 19.7815 60.2116 20 60.4761 20H63.983C64.2475 20 64.4591 19.7815 64.4591 19.5084V9.66836C64.4591 6.87476 66.5451 4.60398 69.1148 4.60398C71.6845 4.60398 73.7704 6.87476 73.7704 9.66836V19.5084C73.7704 19.7815 73.982 20 74.2466 20H77.7534C78.0179 20 78.2296 19.7815 78.2296 19.5084V9.66836C78.2296 6.87476 80.3155 4.60398 82.8852 4.60398C85.4549 4.60398 87.5408 6.87476 87.5408 9.66836V19.5084C87.5408 19.7815 87.7525 20 88.017 20H91.5238C91.7884 20 92 19.7815 92 19.5084V9.66836C92.0075 4.33867 87.9187 0 82.8928 0Z" fill="#D4ED6D"/>
<path d="M112.456 4.36073C112.047 3.72146 111.558 3.13546 110.999 2.61796C109.117 0.882801 106.809 0 104.139 0C102.225 0 100.476 0.449011 98.9406 1.33942C97.6252 2.10046 96.4989 3.1583 95.6719 4.414C94.8528 5.67732 94.3093 7.10807 94.0967 8.58447C94.0415 8.98782 94.0022 9.38356 94.0022 9.78691C93.9706 11.2861 94.2857 12.7854 94.9 14.1629C95.5144 15.5251 96.4202 16.7428 97.5937 17.7093C98.019 18.0594 98.4759 18.3714 98.9485 18.6454C100.484 19.5434 102.233 20 104.131 20C105.683 20 107.116 19.7032 108.408 19.1096C109.692 18.516 110.786 17.7169 111.661 16.7275C112.448 15.8295 113.023 14.8478 113.37 13.8052C113.417 13.6606 113.401 13.4931 113.307 13.3714C113.212 13.2496 113.071 13.1735 112.913 13.1735H108.51C108.305 13.1735 108.124 13.2877 108.046 13.4703C107.857 13.8965 107.589 14.277 107.266 14.589C105.911 15.8676 103.532 15.9513 101.894 15.1826C100.429 14.4977 99.5785 13.2268 99.0666 11.7808H113.449C113.693 11.7808 113.89 11.5982 113.905 11.3699C113.945 10.898 113.953 10.624 113.961 10.3577C113.961 10.2511 113.968 10.1522 113.976 10.0457C113.992 9.9239 114 9.79452 114 9.68036C114 7.77017 113.472 5.98173 112.448 4.36073H112.456ZM99.3029 7.55708C99.4053 7.26027 99.5234 6.99391 99.6416 6.77321C100.114 5.93607 100.752 5.30441 101.524 4.89346C102.304 4.4825 103.178 4.26941 104.115 4.26941C104.927 4.26941 105.698 4.42922 106.415 4.75647C107.132 5.08371 107.715 5.5175 108.148 6.06545C108.518 6.52968 108.754 7.03196 108.849 7.56469H99.295L99.3029 7.55708Z" fill="#D4ED6D"/>
</svg>
